<svg width="56" height="59" viewBox="0 0 56 59" fill="none" xmlns="http://www.w3.org/2000/svg">
<path d="M28 56.7626C42.3594 56.7626 54 44.7228 54 29.8709C54 15.0191 42.3594 2.97925 28 2.97925C13.6406 2.97925 2 15.0191 2 29.8709C2 44.7228 13.6406 56.7626 28 56.7626Z" stroke="black" stroke-width="4"/>
<path d="M28.5 40.2137C34.299 40.2137 39 35.583 39 29.8708C39 24.1585 34.299 19.5278 28.5 19.5278C22.701 19.5278 18 24.1585 18 29.8708C18 35.583 22.701 40.2137 28.5 40.2137Z" fill="white"/>
<path d="M35.5 29.8708C36.7589 29.8708 37.9401 29.5435 38.9607 28.9705C38.9868 29.2672 39 29.5674 39 29.8708C39 35.583 34.299 40.2137 28.5 40.2137C22.701 40.2137 18 35.583 18 29.8708C18 24.1585 22.701 19.5278 28.5 19.5278C28.808 19.5278 29.1128 19.5408 29.414 19.5665C28.8323 20.5719 28.5 21.7355 28.5 22.9754C28.5 26.7837 31.634 29.8708 35.5 29.8708Z" fill="black"/>
</svg>
