<svg width="54" height="61" viewBox="0 0 54 61" fill="none" xmlns="http://www.w3.org/2000/svg">
<path d="M20.8205 38.9258H19V37.1552H20.8205V35.7752H19V33.9786H20.8205V24.6309H26.641C28.8291 24.6309 30.4359 25.0909 31.4615 26.0109C32.4872 26.9135 33 28.2588 33 30.0468V30.5155C33 32.3034 32.4615 33.6314 31.3846 34.4993C30.3248 35.3499 28.7863 35.7752 26.7692 35.7752H25.0513V37.1552H30.7949V38.9258H25.0513V43.2482H20.8205V38.9258ZM26.4872 32.7548C28.094 32.7548 28.8974 31.9997 28.8974 30.4895V30.0728C28.8974 29.2743 28.6923 28.7189 28.2821 28.4064C27.8889 28.0766 27.2991 27.9117 26.5128 27.9117H25.0513V32.7548H26.4872Z" fill="black"/>
<path d="M28.2381 9.17831V5.53248V2.91064L26.1942 4.61691L17.5276 11.8521L16.4309 12.7677L17.5276 13.6834L26.1942 20.9186L28.2381 22.6248V20.003V16.4249C37.9175 17.0455 45.5714 24.8889 45.5714 34.4735C45.5714 44.4633 37.2568 52.5616 27 52.5616C16.7432 52.5616 8.42857 44.4633 8.42857 34.4735C8.42857 29.5423 10.4496 25.0783 13.7372 21.8119L14.6039 20.9508L13.7198 20.1067L10.1833 16.73L9.29916 15.8859L8.43243 16.747C3.83877 21.3109 1 27.5729 1 34.4735C1 48.4592 12.6406 59.7969 27 59.7969C41.3594 59.7969 53 48.4592 53 34.4735C53 20.892 42.0226 9.80772 28.2381 9.17831Z" fill="black" stroke="#FFBC0F" stroke-width="2"/>
</svg>
