<svg width="115" height="49" viewBox="0 0 115 49" fill="none" xmlns="http://www.w3.org/2000/svg">
<path d="M57.4953 28.6525H62.4125V5.54246H58.1174L54 8.87159V13.4936L57.4953 10.9402V28.6525ZM72.6581 29.008C77.516 29.008 80.3893 25.8082 80.3893 19.5701V14.3663C80.3893 8.5807 77.7826 5.21924 72.6877 5.21924C68.1556 5.21924 65.3416 7.93426 65.3416 12.3947V13.9461C65.3416 18.2772 67.9186 20.4428 71.2362 20.4428C73.4875 20.4428 74.7019 19.4408 75.4721 17.954V19.9256C75.4129 23.384 74.465 24.9032 72.51 24.9032C70.9993 24.9032 70.318 24.1274 70.1699 22.6406H65.5489C65.8451 26.9071 68.4222 29.008 72.6581 29.008ZM72.6877 9.13017C74.228 9.13017 75.2055 10.2937 75.2055 12.4916V13.7522C75.2055 15.7238 74.1984 16.8551 72.6284 16.8551C70.9993 16.8551 70.1402 15.6915 70.1402 13.7845V12.2977C70.1402 10.423 71.0585 9.13017 72.6877 9.13017ZM89.5226 29.008C94.3805 29.008 97.2538 25.8082 97.2538 19.5701V14.3663C97.2538 8.5807 94.6471 5.21924 89.5522 5.21924C85.0201 5.21924 82.2061 7.93426 82.2061 12.3947V13.9461C82.2061 18.2772 84.7832 20.4428 88.1008 20.4428C90.352 20.4428 91.5665 19.4408 92.3366 17.954V19.9256C92.2774 23.384 91.3295 24.9032 89.3745 24.9032C87.8638 24.9032 87.1825 24.1274 87.0344 22.6406H82.4134C82.7097 26.9071 85.2867 29.008 89.5226 29.008ZM89.5522 9.13017C91.0925 9.13017 92.07 10.2937 92.07 12.4916V13.7522C92.07 15.7238 91.0629 16.8551 89.493 16.8551C87.8638 16.8551 87.0048 15.6915 87.0048 13.7845V12.2977C87.0048 10.423 87.923 9.13017 89.5522 9.13017ZM106.565 29.008C110.949 29.008 114 26.8101 114 22.479V21.4771C114 18.8913 112.845 17.1459 110.594 16.3056C112.312 15.4975 113.378 14.0754 113.378 11.7482V11.2311C113.378 7.32015 110.445 5.21924 106.624 5.21924C102.833 5.21924 99.8409 7.28783 99.8409 11.2634V11.7805C99.8409 14.0431 100.848 15.5299 102.596 16.3056C100.374 17.1783 99.1596 18.956 99.1596 21.574V22.6083C99.1596 26.9394 102.211 29.008 106.565 29.008ZM106.624 14.7865C105.351 14.7865 104.373 13.8815 104.373 12.1684V11.522C104.373 9.84124 105.321 8.96856 106.624 8.96856C107.928 8.96856 108.846 9.87357 108.846 11.522V12.1684C108.846 13.8815 107.957 14.7865 106.624 14.7865ZM106.595 25.1617C105.084 25.1617 104.047 24.1921 104.047 22.2528V21.0246C104.047 19.0206 105.143 18.0833 106.595 18.0833C108.105 18.0833 109.112 19.0853 109.112 20.9922V22.2528C109.112 24.1921 108.105 25.1617 106.595 25.1617Z" fill="black"/>
<path d="M0 46.5911H115" stroke="black" stroke-width="4"/>
<path fill-rule="evenodd" clip-rule="evenodd" d="M18 43.4883C17.9995 41.2033 15.7611 39.3511 13 39.3511C10.2389 39.3511 8.00044 41.2033 8 43.4883H18Z" fill="black"/>
<mask id="mask0_12_11615" style="mask-type:luminance" maskUnits="userSpaceOnUse" x="7" y="38" width="12" height="6">
<path fill-rule="evenodd" clip-rule="evenodd" d="M18.09 43.7695C18.0895 40.6542 15.7757 38.1289 12.9215 38.1289C10.0672 38.1289 7.75338 40.6542 7.75293 43.7695H18.09Z" fill="white"/>
</mask>
<g mask="url(#mask0_12_11615)">
<path d="M18.0904 43.7695V45.1799H19.3828L19.3825 43.7694L18.0904 43.7695ZM7.75328 43.7695L6.46114 43.7694L6.46094 45.1799H7.75328V43.7695ZM12.9218 39.5393C15.0625 39.5393 16.7978 41.4333 16.7982 43.7698L19.3825 43.7694C19.382 39.8751 16.4897 36.7185 12.9218 36.7185V39.5393ZM9.04541 43.7698C9.04575 41.4333 10.7812 39.5393 12.9218 39.5393V36.7185C9.35404 36.7185 6.46171 39.8751 6.46114 43.7694L9.04541 43.7698ZM7.75328 45.1799H18.0904V42.3591H7.75328V45.1799Z" fill="black"/>
</g>
<path d="M12 39.3511V0.0478516" stroke="black" stroke-width="2"/>
<path d="M29 6.23493C26.2796 1.64998 22.0271 2.62382 13 6.23493V27.9737C21.6765 24.6746 25.7897 23.8462 29 27.9737V6.23493Z" fill="#FF0000"/>
<path d="M41 28.1779C38.525 31.0342 35.0995 30.2641 28 28.1779V8.32227C34.7827 9.98545 38.0703 10.4941 41 8.32227V28.1779Z" fill="#FF0000"/>
</svg>
