<svg width="216" height="186" viewBox="0 0 216 186" fill="none" xmlns="http://www.w3.org/2000/svg">
<path d="M14.9714 146.308L12.5 145L4.30023 149.341L7.21545 150.799L14.9714 146.308Z" fill="white"/>
<path d="M17.0565 147.412L9.35733 151.87L12.4934 153.438L20.4656 149.217L17.0565 147.412Z" fill="white"/>
<path d="M21 150.066L13 154.301V163.735L21 159.5V150.066Z" fill="white"/>
<path d="M12 163.735V154.309L9 152.809V155.75L7 154.75V151.809L4 150.309V159.5L12 163.735Z" fill="white"/>
<path d="M40.3831 146.308L37.9117 145L29.7119 149.341L32.6271 150.799L40.3831 146.308Z" fill="white"/>
<path d="M42.4681 147.412L34.769 151.87L37.9051 153.438L45.8773 149.217L42.4681 147.412Z" fill="white"/>
<path d="M46.4117 150.066L38.4117 154.301V163.735L46.4117 159.5V150.066Z" fill="white"/>
<path d="M37.4117 163.735V154.309L34.4117 152.809V155.75L32.4117 154.75V151.809L29.4117 150.309V159.5L37.4117 163.735Z" fill="white"/>
<path d="M65.795 146.308L63.3236 145L55.1238 149.341L58.0391 150.799L65.795 146.308Z" fill="white"/>
<path d="M67.8801 147.412L60.1809 151.87L63.317 153.438L71.2892 149.217L67.8801 147.412Z" fill="white"/>
<path d="M71.8236 150.066L63.8236 154.301V163.735L71.8236 159.5V150.066Z" fill="white"/>
<path d="M62.8236 163.735V154.309L59.8236 152.809V155.75L57.8236 154.75V151.809L54.8236 150.309V159.5L62.8236 163.735Z" fill="white"/>
<path d="M91.2067 146.308L88.7353 145L80.5356 149.341L83.4508 150.799L91.2067 146.308Z" fill="white"/>
<path d="M93.2918 147.412L85.5927 151.87L88.7288 153.438L96.7009 149.217L93.2918 147.412Z" fill="white"/>
<path d="M97.2353 150.066L89.2353 154.301V163.735L97.2353 159.5V150.066Z" fill="white"/>
<path d="M88.2353 163.735V154.309L85.2353 152.809V155.75L83.2353 154.75V151.809L80.2353 150.309V159.5L88.2353 163.735Z" fill="white"/>
<path d="M116.618 146.308L114.147 145L105.947 149.341L108.862 150.799L116.618 146.308Z" fill="white"/>
<path d="M118.703 147.412L111.004 151.87L114.14 153.438L122.113 149.217L118.703 147.412Z" fill="white"/>
<path d="M122.647 150.066L114.647 154.301V163.735L122.647 159.5V150.066Z" fill="white"/>
<path d="M113.647 163.735V154.309L110.647 152.809V155.75L108.647 154.75V151.809L105.647 150.309V159.5L113.647 163.735Z" fill="white"/>
<path d="M142.03 146.308L139.559 145L131.359 149.341L134.274 150.799L142.03 146.308Z" fill="white"/>
<path d="M144.115 147.412L136.416 151.87L139.552 153.438L147.524 149.217L144.115 147.412Z" fill="white"/>
<path d="M148.059 150.066L140.059 154.301V163.735L148.059 159.5V150.066Z" fill="white"/>
<path d="M139.059 163.735V154.309L136.059 152.809V155.75L134.059 154.75V151.809L131.059 150.309V159.5L139.059 163.735Z" fill="white"/>
<path d="M167.442 146.308L164.971 145L156.771 149.341L159.686 150.799L167.442 146.308Z" fill="white"/>
<path d="M169.527 147.412L161.828 151.87L164.964 153.438L172.936 149.217L169.527 147.412Z" fill="white"/>
<path d="M173.471 150.066L165.471 154.301V163.735L173.471 159.5V150.066Z" fill="white"/>
<path d="M164.471 163.735V154.309L161.471 152.809V155.75L159.471 154.75V151.809L156.471 150.309V159.5L164.471 163.735Z" fill="white"/>
<path d="M192.854 146.308L190.382 145L182.183 149.341L185.098 150.799L192.854 146.308Z" fill="white"/>
<path d="M194.939 147.412L187.24 151.87L190.376 153.438L198.348 149.217L194.939 147.412Z" fill="white"/>
<path d="M198.882 150.066L190.882 154.301V163.735L198.882 159.5V150.066Z" fill="white"/>
<path d="M189.882 163.735V154.309L186.882 152.809V155.75L184.882 154.75V151.809L181.882 150.309V159.5L189.882 163.735Z" fill="white"/>
<path d="M14.9714 106.308L12.5 105L4.30023 109.341L7.21545 110.799L14.9714 106.308Z" fill="white"/>
<path d="M17.0565 107.412L9.35733 111.87L12.4934 113.438L20.4656 109.217L17.0565 107.412Z" fill="white"/>
<path d="M21 110.066L13 114.301V123.735L21 119.5V110.066Z" fill="white"/>
<path d="M12 123.735V114.309L9 112.809V115.75L7 114.75V111.809L4 110.309V119.5L12 123.735Z" fill="white"/>
<path d="M40.3831 106.308L37.9117 105L29.7119 109.341L32.6271 110.799L40.3831 106.308Z" fill="white"/>
<path d="M42.4681 107.412L34.769 111.87L37.9051 113.438L45.8773 109.217L42.4681 107.412Z" fill="white"/>
<path d="M46.4117 110.066L38.4117 114.301V123.735L46.4117 119.5V110.066Z" fill="white"/>
<path d="M37.4117 123.735V114.309L34.4117 112.809V115.75L32.4117 114.75V111.809L29.4117 110.309V119.5L37.4117 123.735Z" fill="white"/>
<path d="M65.795 106.308L63.3236 105L55.1238 109.341L58.0391 110.799L65.795 106.308Z" fill="white"/>
<path d="M67.8801 107.412L60.1809 111.87L63.317 113.438L71.2892 109.217L67.8801 107.412Z" fill="white"/>
<path d="M71.8236 110.066L63.8236 114.301V123.735L71.8236 119.5V110.066Z" fill="white"/>
<path d="M62.8236 123.735V114.309L59.8236 112.809V115.75L57.8236 114.75V111.809L54.8236 110.309V119.5L62.8236 123.735Z" fill="white"/>
<path d="M91.2067 106.308L88.7353 105L80.5356 109.341L83.4508 110.799L91.2067 106.308Z" fill="white"/>
<path d="M93.2918 107.412L85.5927 111.87L88.7288 113.438L96.7009 109.217L93.2918 107.412Z" fill="white"/>
<path d="M97.2353 110.066L89.2353 114.301V123.735L97.2353 119.5V110.066Z" fill="white"/>
<path d="M88.2353 123.735V114.309L85.2353 112.809V115.75L83.2353 114.75V111.809L80.2353 110.309V119.5L88.2353 123.735Z" fill="white"/>
<path d="M116.618 106.308L114.147 105L105.947 109.341L108.862 110.799L116.618 106.308Z" fill="white"/>
<path d="M118.703 107.412L111.004 111.87L114.14 113.438L122.113 109.217L118.703 107.412Z" fill="white"/>
<path d="M122.647 110.066L114.647 114.301V123.735L122.647 119.5V110.066Z" fill="white"/>
<path d="M113.647 123.735V114.309L110.647 112.809V115.75L108.647 114.75V111.809L105.647 110.309V119.5L113.647 123.735Z" fill="white"/>
<path d="M142.03 106.308L139.559 105L131.359 109.341L134.274 110.799L142.03 106.308Z" fill="white"/>
<path d="M144.115 107.412L136.416 111.87L139.552 113.438L147.524 109.217L144.115 107.412Z" fill="white"/>
<path d="M148.059 110.066L140.059 114.301V123.735L148.059 119.5V110.066Z" fill="white"/>
<path d="M139.059 123.735V114.309L136.059 112.809V115.75L134.059 114.75V111.809L131.059 110.309V119.5L139.059 123.735Z" fill="white"/>
<path d="M167.442 106.308L164.971 105L156.771 109.341L159.686 110.799L167.442 106.308Z" fill="white"/>
<path d="M169.527 107.412L161.828 111.87L164.964 113.438L172.936 109.217L169.527 107.412Z" fill="white"/>
<path d="M173.471 110.066L165.471 114.301V123.735L173.471 119.5V110.066Z" fill="white"/>
<path d="M164.471 123.735V114.309L161.471 112.809V115.75L159.471 114.75V111.809L156.471 110.309V119.5L164.471 123.735Z" fill="white"/>
<path d="M192.854 106.308L190.382 105L182.183 109.341L185.098 110.799L192.854 106.308Z" fill="white"/>
<path d="M194.939 107.412L187.24 111.87L190.376 113.438L198.348 109.217L194.939 107.412Z" fill="white"/>
<path d="M198.882 110.066L190.882 114.301V123.735L198.882 119.5V110.066Z" fill="white"/>
<path d="M189.882 123.735V114.309L186.882 112.809V115.75L184.882 114.75V111.809L181.882 110.309V119.5L189.882 123.735Z" fill="white"/>
<path d="M14.9714 65.3084L12.5 64L4.30023 68.3411L7.21545 69.7987L14.9714 65.3084Z" fill="white"/>
<path d="M17.0565 66.4122L9.35733 70.8696L12.4934 72.4377L20.4656 68.2171L17.0565 66.4122Z" fill="white"/>
<path d="M21 69.0657L13 73.301V82.7353L21 78.5V69.0657Z" fill="white"/>
<path d="M12 82.7353V73.309L9 71.809V74.75L7 73.75V70.809L4 69.309V78.5L12 82.7353Z" fill="white"/>
<path d="M40.3831 65.3084L37.9117 64L29.7119 68.3411L32.6271 69.7987L40.3831 65.3084Z" fill="white"/>
<path d="M42.4681 66.4122L34.769 70.8696L37.9051 72.4377L45.8773 68.2171L42.4681 66.4122Z" fill="white"/>
<path d="M46.4117 69.0657L38.4117 73.301V82.7353L46.4117 78.5V69.0657Z" fill="white"/>
<path d="M37.4117 82.7353V73.309L34.4117 71.809V74.75L32.4117 73.75V70.809L29.4117 69.309V78.5L37.4117 82.7353Z" fill="white"/>
<path d="M65.795 65.3084L63.3236 64L55.1238 68.3411L58.0391 69.7987L65.795 65.3084Z" fill="white"/>
<path d="M67.8801 66.4122L60.1809 70.8696L63.317 72.4377L71.2892 68.2171L67.8801 66.4122Z" fill="white"/>
<path d="M71.8236 69.0657L63.8236 73.301V82.7353L71.8236 78.5V69.0657Z" fill="white"/>
<path d="M62.8236 82.7353V73.309L59.8236 71.809V74.75L57.8236 73.75V70.809L54.8236 69.309V78.5L62.8236 82.7353Z" fill="white"/>
<path d="M91.2067 65.3084L88.7353 64L80.5356 68.3411L83.4508 69.7987L91.2067 65.3084Z" fill="white"/>
<path d="M93.2918 66.4122L85.5927 70.8696L88.7288 72.4377L96.7009 68.2171L93.2918 66.4122Z" fill="white"/>
<path d="M97.2353 69.0657L89.2353 73.301V82.7353L97.2353 78.5V69.0657Z" fill="white"/>
<path d="M88.2353 82.7353V73.309L85.2353 71.809V74.75L83.2353 73.75V70.809L80.2353 69.309V78.5L88.2353 82.7353Z" fill="white"/>
<path d="M116.618 65.3084L114.147 64L105.947 68.3411L108.862 69.7987L116.618 65.3084Z" fill="white"/>
<path d="M118.703 66.4122L111.004 70.8696L114.14 72.4377L122.113 68.2171L118.703 66.4122Z" fill="white"/>
<path d="M122.647 69.0657L114.647 73.301V82.7353L122.647 78.5V69.0657Z" fill="white"/>
<path d="M113.647 82.7353V73.309L110.647 71.809V74.75L108.647 73.75V70.809L105.647 69.309V78.5L113.647 82.7353Z" fill="white"/>
<path d="M142.03 65.3084L139.559 64L131.359 68.3411L134.274 69.7987L142.03 65.3084Z" fill="white"/>
<path d="M144.115 66.4122L136.416 70.8696L139.552 72.4377L147.524 68.2171L144.115 66.4122Z" fill="white"/>
<path d="M148.059 69.0657L140.059 73.301V82.7353L148.059 78.5V69.0657Z" fill="white"/>
<path d="M139.059 82.7353V73.309L136.059 71.809V74.75L134.059 73.75V70.809L131.059 69.309V78.5L139.059 82.7353Z" fill="white"/>
<path d="M167.442 65.3084L164.971 64L156.771 68.3411L159.686 69.7987L167.442 65.3084Z" fill="white"/>
<path d="M169.527 66.4122L161.828 70.8696L164.964 72.4377L172.936 68.2171L169.527 66.4122Z" fill="white"/>
<path d="M173.471 69.0657L165.471 73.301V82.7353L173.471 78.5V69.0657Z" fill="white"/>
<path d="M164.471 82.7353V73.309L161.471 71.809V74.75L159.471 73.75V70.809L156.471 69.309V78.5L164.471 82.7353Z" fill="white"/>
<path d="M192.854 65.3084L190.382 64L182.183 68.3411L185.098 69.7987L192.854 65.3084Z" fill="white"/>
<path d="M194.939 66.4122L187.24 70.8696L190.376 72.4377L198.348 68.2171L194.939 66.4122Z" fill="white"/>
<path d="M198.882 69.0657L190.882 73.301V82.7353L198.882 78.5V69.0657Z" fill="white"/>
<path d="M189.882 82.7353V73.309L186.882 71.809V74.75L184.882 73.75V70.809L181.882 69.309V78.5L189.882 82.7353Z" fill="white"/>
<path d="M14.9714 24.3084L12.5 23L4.30023 27.3411L7.21545 28.7987L14.9714 24.3084Z" fill="white"/>
<path d="M17.0565 25.4122L9.35733 29.8696L12.4934 31.4377L20.4656 27.2171L17.0565 25.4122Z" fill="white"/>
<path d="M21 28.0657L13 32.301V41.7353L21 37.5V28.0657Z" fill="white"/>
<path d="M12 41.7353V32.309L9 30.809V33.75L7 32.75V29.809L4 28.309V37.5L12 41.7353Z" fill="white"/>
<path d="M40.3831 24.3084L37.9117 23L29.7119 27.3411L32.6271 28.7987L40.3831 24.3084Z" fill="white"/>
<path d="M42.4681 25.4122L34.769 29.8696L37.9051 31.4377L45.8773 27.2171L42.4681 25.4122Z" fill="white"/>
<path d="M46.4117 28.0657L38.4117 32.301V41.7353L46.4117 37.5V28.0657Z" fill="white"/>
<path d="M37.4117 41.7353V32.309L34.4117 30.809V33.75L32.4117 32.75V29.809L29.4117 28.309V37.5L37.4117 41.7353Z" fill="white"/>
<path d="M65.795 24.3084L63.3236 23L55.1238 27.3411L58.0391 28.7987L65.795 24.3084Z" fill="white"/>
<path d="M67.8801 25.4122L60.1809 29.8696L63.317 31.4377L71.2892 27.2171L67.8801 25.4122Z" fill="white"/>
<path d="M71.8236 28.0657L63.8236 32.301V41.7353L71.8236 37.5V28.0657Z" fill="white"/>
<path d="M62.8236 41.7353V32.309L59.8236 30.809V33.75L57.8236 32.75V29.809L54.8236 28.309V37.5L62.8236 41.7353Z" fill="white"/>
<path d="M91.2067 24.3084L88.7353 23L80.5356 27.3411L83.4508 28.7987L91.2067 24.3084Z" fill="white"/>
<path d="M93.2918 25.4122L85.5927 29.8696L88.7288 31.4377L96.7009 27.2171L93.2918 25.4122Z" fill="white"/>
<path d="M97.2353 28.0657L89.2353 32.301V41.7353L97.2353 37.5V28.0657Z" fill="white"/>
<path d="M88.2353 41.7353V32.309L85.2353 30.809V33.75L83.2353 32.75V29.809L80.2353 28.309V37.5L88.2353 41.7353Z" fill="white"/>
<path d="M116.618 24.3084L114.147 23L105.947 27.3411L108.862 28.7987L116.618 24.3084Z" fill="white"/>
<path d="M118.703 25.4122L111.004 29.8696L114.14 31.4377L122.113 27.2171L118.703 25.4122Z" fill="white"/>
<path d="M122.647 28.0657L114.647 32.301V41.7353L122.647 37.5V28.0657Z" fill="white"/>
<path d="M113.647 41.7353V32.309L110.647 30.809V33.75L108.647 32.75V29.809L105.647 28.309V37.5L113.647 41.7353Z" fill="white"/>
<path d="M142.03 24.3084L139.559 23L131.359 27.3411L134.274 28.7987L142.03 24.3084Z" fill="white"/>
<path d="M144.115 25.4122L136.416 29.8696L139.552 31.4377L147.524 27.2171L144.115 25.4122Z" fill="white"/>
<path d="M148.059 28.0657L140.059 32.301V41.7353L148.059 37.5V28.0657Z" fill="white"/>
<path d="M139.059 41.7353V32.309L136.059 30.809V33.75L134.059 32.75V29.809L131.059 28.309V37.5L139.059 41.7353Z" fill="white"/>
<path d="M167.442 24.3084L164.971 23L156.771 27.3411L159.686 28.7987L167.442 24.3084Z" fill="white"/>
<path d="M169.527 25.4122L161.828 29.8696L164.964 31.4377L172.936 27.2171L169.527 25.4122Z" fill="white"/>
<path d="M173.471 28.0657L165.471 32.301V41.7353L173.471 37.5V28.0657Z" fill="white"/>
<path d="M164.471 41.7353V32.309L161.471 30.809V33.75L159.471 32.75V29.809L156.471 28.309V37.5L164.471 41.7353Z" fill="white"/>
<path d="M192.854 24.3084L190.382 23L182.183 27.3411L185.098 28.7987L192.854 24.3084Z" fill="white"/>
<path d="M194.939 25.4122L187.24 29.8696L190.376 31.4377L198.348 27.2171L194.939 25.4122Z" fill="white"/>
<path d="M198.882 28.0657L190.882 32.301V41.7353L198.882 37.5V28.0657Z" fill="white"/>
<path d="M189.882 41.7353V32.309L186.882 30.809V33.75L184.882 32.75V29.809L181.882 28.309V37.5L189.882 41.7353Z" fill="white"/>
<path d="M27.6774 126.308L25.206 125L17.0062 129.341L19.9214 130.799L27.6774 126.308Z" fill="white"/>
<path d="M29.7624 127.412L22.0633 131.87L25.1994 133.438L33.1716 129.217L29.7624 127.412Z" fill="white"/>
<path d="M33.706 130.066L25.706 134.301V143.735L33.706 139.5V130.066Z" fill="white"/>
<path d="M24.706 143.735V134.309L21.706 132.809V135.75L19.706 134.75V131.809L16.706 130.309V139.5L24.706 143.735Z" fill="white"/>
<path d="M53.089 126.308L50.6176 125L42.4178 129.341L45.333 130.799L53.089 126.308Z" fill="white"/>
<path d="M55.174 127.412L47.4749 131.87L50.611 133.438L58.5832 129.217L55.174 127.412Z" fill="white"/>
<path d="M59.1176 130.066L51.1176 134.301V143.735L59.1176 139.5V130.066Z" fill="white"/>
<path d="M50.1176 143.735V134.309L47.1176 132.809V135.75L45.1176 134.75V131.809L42.1176 130.309V139.5L50.1176 143.735Z" fill="white"/>
<path d="M78.5007 126.308L76.0293 125L67.8295 129.341L70.7447 130.799L78.5007 126.308Z" fill="white"/>
<path d="M80.5857 127.412L72.8866 131.87L76.0227 133.438L83.9949 129.217L80.5857 127.412Z" fill="white"/>
<path d="M84.5293 130.066L76.5293 134.301V143.735L84.5293 139.5V130.066Z" fill="white"/>
<path d="M75.5293 143.735V134.309L72.5293 132.809V135.75L70.5293 134.75V131.809L67.5293 130.309V139.5L75.5293 143.735Z" fill="white"/>
<path d="M103.913 126.308L101.441 125L93.2414 129.341L96.1566 130.799L103.913 126.308Z" fill="white"/>
<path d="M105.998 127.412L98.2985 131.87L101.435 133.438L109.407 129.217L105.998 127.412Z" fill="white"/>
<path d="M109.941 130.066L101.941 134.301V143.735L109.941 139.5V130.066Z" fill="white"/>
<path d="M100.941 143.735V134.309L97.9412 132.809V135.75L95.9412 134.75V131.809L92.9412 130.309V139.5L100.941 143.735Z" fill="white"/>
<path d="M129.324 126.308L126.853 125L118.653 129.341L121.568 130.799L129.324 126.308Z" fill="white"/>
<path d="M131.409 127.412L123.71 131.87L126.846 133.438L134.819 129.217L131.409 127.412Z" fill="white"/>
<path d="M135.353 130.066L127.353 134.301V143.735L135.353 139.5V130.066Z" fill="white"/>
<path d="M126.353 143.735V134.309L123.353 132.809V135.75L121.353 134.75V131.809L118.353 130.309V139.5L126.353 143.735Z" fill="white"/>
<path d="M154.736 126.308L152.265 125L144.065 129.341L146.98 130.799L154.736 126.308Z" fill="white"/>
<path d="M156.821 127.412L149.122 131.87L152.258 133.438L160.23 129.217L156.821 127.412Z" fill="white"/>
<path d="M160.765 130.066L152.765 134.301V143.735L160.765 139.5V130.066Z" fill="white"/>
<path d="M151.765 143.735V134.309L148.765 132.809V135.75L146.765 134.75V131.809L143.765 130.309V139.5L151.765 143.735Z" fill="white"/>
<path d="M180.148 126.308L177.676 125L169.477 129.341L172.392 130.799L180.148 126.308Z" fill="white"/>
<path d="M182.233 127.412L174.534 131.87L177.67 133.438L185.642 129.217L182.233 127.412Z" fill="white"/>
<path d="M186.176 130.066L178.176 134.301V143.735L186.176 139.5V130.066Z" fill="white"/>
<path d="M177.176 143.735V134.309L174.176 132.809V135.75L172.176 134.75V131.809L169.176 130.309V139.5L177.176 143.735Z" fill="white"/>
<path d="M205.56 126.308L203.088 125L194.888 129.341L197.804 130.799L205.56 126.308Z" fill="white"/>
<path d="M207.645 127.412L199.946 131.87L203.082 133.438L211.054 129.217L207.645 127.412Z" fill="white"/>
<path d="M211.588 130.066L203.588 134.301V143.735L211.588 139.5V130.066Z" fill="white"/>
<path d="M202.588 143.735V134.309L199.588 132.809V135.75L197.588 134.75V131.809L194.588 130.309V139.5L202.588 143.735Z" fill="white"/>
<path d="M27.6774 86.3084L25.206 85L17.0062 89.3411L19.9214 90.7987L27.6774 86.3084Z" fill="white"/>
<path d="M29.7624 87.4122L22.0633 91.8696L25.1994 93.4377L33.1716 89.2171L29.7624 87.4122Z" fill="white"/>
<path d="M33.706 90.0657L25.706 94.301V103.735L33.706 99.5V90.0657Z" fill="white"/>
<path d="M24.706 103.735V94.309L21.706 92.809V95.75L19.706 94.75V91.809L16.706 90.309V99.5L24.706 103.735Z" fill="white"/>
<path d="M53.089 86.3084L50.6176 85L42.4178 89.3411L45.333 90.7987L53.089 86.3084Z" fill="white"/>
<path d="M55.174 87.4122L47.4749 91.8696L50.611 93.4377L58.5832 89.2171L55.174 87.4122Z" fill="white"/>
<path d="M59.1176 90.0657L51.1176 94.301V103.735L59.1176 99.5V90.0657Z" fill="white"/>
<path d="M50.1176 103.735V94.309L47.1176 92.809V95.75L45.1176 94.75V91.809L42.1176 90.309V99.5L50.1176 103.735Z" fill="white"/>
<path d="M78.5007 86.3084L76.0293 85L67.8295 89.3411L70.7447 90.7987L78.5007 86.3084Z" fill="white"/>
<path d="M80.5857 87.4122L72.8866 91.8696L76.0227 93.4377L83.9949 89.2171L80.5857 87.4122Z" fill="white"/>
<path d="M84.5293 90.0657L76.5293 94.301V103.735L84.5293 99.5V90.0657Z" fill="white"/>
<path d="M75.5293 103.735V94.309L72.5293 92.809V95.75L70.5293 94.75V91.809L67.5293 90.309V99.5L75.5293 103.735Z" fill="white"/>
<path d="M103.913 86.3084L101.441 85L93.2414 89.3411L96.1566 90.7987L103.913 86.3084Z" fill="white"/>
<path d="M105.998 87.4122L98.2985 91.8696L101.435 93.4377L109.407 89.2171L105.998 87.4122Z" fill="white"/>
<path d="M109.941 90.0657L101.941 94.301V103.735L109.941 99.5V90.0657Z" fill="white"/>
<path d="M100.941 103.735V94.309L97.9412 92.809V95.75L95.9412 94.75V91.809L92.9412 90.309V99.5L100.941 103.735Z" fill="white"/>
<path d="M129.324 86.3084L126.853 85L118.653 89.3411L121.568 90.7987L129.324 86.3084Z" fill="white"/>
<path d="M131.409 87.4122L123.71 91.8696L126.846 93.4377L134.819 89.2171L131.409 87.4122Z" fill="white"/>
<path d="M135.353 90.0657L127.353 94.301V103.735L135.353 99.5V90.0657Z" fill="white"/>
<path d="M126.353 103.735V94.309L123.353 92.809V95.75L121.353 94.75V91.809L118.353 90.309V99.5L126.353 103.735Z" fill="white"/>
<path d="M154.736 86.3084L152.265 85L144.065 89.3411L146.98 90.7987L154.736 86.3084Z" fill="white"/>
<path d="M156.821 87.4122L149.122 91.8696L152.258 93.4377L160.23 89.2171L156.821 87.4122Z" fill="white"/>
<path d="M160.765 90.0657L152.765 94.301V103.735L160.765 99.5V90.0657Z" fill="white"/>
<path d="M151.765 103.735V94.309L148.765 92.809V95.75L146.765 94.75V91.809L143.765 90.309V99.5L151.765 103.735Z" fill="white"/>
<path d="M180.148 86.3084L177.676 85L169.477 89.3411L172.392 90.7987L180.148 86.3084Z" fill="white"/>
<path d="M182.233 87.4122L174.534 91.8696L177.67 93.4377L185.642 89.2171L182.233 87.4122Z" fill="white"/>
<path d="M186.176 90.0657L178.176 94.301V103.735L186.176 99.5V90.0657Z" fill="white"/>
<path d="M177.176 103.735V94.309L174.176 92.809V95.75L172.176 94.75V91.809L169.176 90.309V99.5L177.176 103.735Z" fill="white"/>
<path d="M205.56 86.3084L203.088 85L194.888 89.3411L197.804 90.7987L205.56 86.3084Z" fill="white"/>
<path d="M207.645 87.4122L199.946 91.8696L203.082 93.4377L211.054 89.2171L207.645 87.4122Z" fill="white"/>
<path d="M211.588 90.0657L203.588 94.301V103.735L211.588 99.5V90.0657Z" fill="white"/>
<path d="M202.588 103.735V94.309L199.588 92.809V95.75L197.588 94.75V91.809L194.588 90.309V99.5L202.588 103.735Z" fill="white"/>
<path d="M27.6774 45.3084L25.206 44L17.0062 48.3411L19.9214 49.7987L27.6774 45.3084Z" fill="white"/>
<path d="M29.7624 46.4122L22.0633 50.8696L25.1994 52.4377L33.1716 48.2171L29.7624 46.4122Z" fill="white"/>
<path d="M33.706 49.0657L25.706 53.301V62.7353L33.706 58.5V49.0657Z" fill="white"/>
<path d="M24.706 62.7353V53.309L21.706 51.809V54.75L19.706 53.75V50.809L16.706 49.309V58.5L24.706 62.7353Z" fill="white"/>
<path d="M53.089 45.3084L50.6176 44L42.4178 48.3411L45.333 49.7987L53.089 45.3084Z" fill="white"/>
<path d="M55.174 46.4122L47.4749 50.8696L50.611 52.4377L58.5832 48.2171L55.174 46.4122Z" fill="white"/>
<path d="M59.1176 49.0657L51.1176 53.301V62.7353L59.1176 58.5V49.0657Z" fill="white"/>
<path d="M50.1176 62.7353V53.309L47.1176 51.809V54.75L45.1176 53.75V50.809L42.1176 49.309V58.5L50.1176 62.7353Z" fill="white"/>
<path d="M78.5007 45.3084L76.0293 44L67.8295 48.3411L70.7447 49.7987L78.5007 45.3084Z" fill="white"/>
<path d="M80.5857 46.4122L72.8866 50.8696L76.0227 52.4377L83.9949 48.2171L80.5857 46.4122Z" fill="white"/>
<path d="M84.5293 49.0657L76.5293 53.301V62.7353L84.5293 58.5V49.0657Z" fill="white"/>
<path d="M75.5293 62.7353V53.309L72.5293 51.809V54.75L70.5293 53.75V50.809L67.5293 49.309V58.5L75.5293 62.7353Z" fill="white"/>
<path d="M103.913 45.3084L101.441 44L93.2414 48.3411L96.1566 49.7987L103.913 45.3084Z" fill="white"/>
<path d="M105.998 46.4122L98.2985 50.8696L101.435 52.4377L109.407 48.2171L105.998 46.4122Z" fill="white"/>
<path d="M109.941 49.0657L101.941 53.301V62.7353L109.941 58.5V49.0657Z" fill="white"/>
<path d="M100.941 62.7353V53.309L97.9412 51.809V54.75L95.9412 53.75V50.809L92.9412 49.309V58.5L100.941 62.7353Z" fill="white"/>
<path d="M129.324 45.3084L126.853 44L118.653 48.3411L121.568 49.7987L129.324 45.3084Z" fill="white"/>
<path d="M131.409 46.4122L123.71 50.8696L126.846 52.4377L134.819 48.2171L131.409 46.4122Z" fill="white"/>
<path d="M135.353 49.0657L127.353 53.301V62.7353L135.353 58.5V49.0657Z" fill="white"/>
<path d="M126.353 62.7353V53.309L123.353 51.809V54.75L121.353 53.75V50.809L118.353 49.309V58.5L126.353 62.7353Z" fill="white"/>
<path d="M154.736 45.3084L152.265 44L144.065 48.3411L146.98 49.7987L154.736 45.3084Z" fill="white"/>
<path d="M156.821 46.4122L149.122 50.8696L152.258 52.4377L160.23 48.2171L156.821 46.4122Z" fill="white"/>
<path d="M160.765 49.0657L152.765 53.301V62.7353L160.765 58.5V49.0657Z" fill="white"/>
<path d="M151.765 62.7353V53.309L148.765 51.809V54.75L146.765 53.75V50.809L143.765 49.309V58.5L151.765 62.7353Z" fill="white"/>
<path d="M180.148 45.3084L177.676 44L169.477 48.3411L172.392 49.7987L180.148 45.3084Z" fill="white"/>
<path d="M182.233 46.4122L174.534 50.8696L177.67 52.4377L185.642 48.2171L182.233 46.4122Z" fill="white"/>
<path d="M186.176 49.0657L178.176 53.301V62.7353L186.176 58.5V49.0657Z" fill="white"/>
<path d="M177.176 62.7353V53.309L174.176 51.809V54.75L172.176 53.75V50.809L169.176 49.309V58.5L177.176 62.7353Z" fill="white"/>
<path d="M205.56 45.3084L203.088 44L194.888 48.3411L197.804 49.7987L205.56 45.3084Z" fill="white"/>
<path d="M207.645 46.4122L199.946 50.8696L203.082 52.4377L211.054 48.2171L207.645 46.4122Z" fill="white"/>
<path d="M211.588 49.0657L203.588 53.301V62.7353L211.588 58.5V49.0657Z" fill="white"/>
<path d="M202.588 62.7353V53.309L199.588 51.809V54.75L197.588 53.75V50.809L194.588 49.309V58.5L202.588 62.7353Z" fill="white"/>
<path d="M27.6774 4.30838L25.206 3L17.0062 7.34106L19.9214 8.79868L27.6774 4.30838Z" fill="white"/>
<path d="M29.7624 5.41223L22.0633 9.86963L25.1994 11.4377L33.1716 7.2171L29.7624 5.41223Z" fill="white"/>
<path d="M33.706 8.06567L25.706 12.301V21.7353L33.706 17.5V8.06567Z" fill="white"/>
<path d="M24.706 21.7353V12.309L21.706 10.809V13.75L19.706 12.75V9.80899L16.706 8.30899V17.5L24.706 21.7353Z" fill="white"/>
<path d="M53.089 4.30838L50.6176 3L42.4178 7.34106L45.333 8.79868L53.089 4.30838Z" fill="white"/>
<path d="M55.174 5.41223L47.4749 9.86963L50.611 11.4377L58.5832 7.2171L55.174 5.41223Z" fill="white"/>
<path d="M59.1176 8.06567L51.1176 12.301V21.7353L59.1176 17.5V8.06567Z" fill="white"/>
<path d="M50.1176 21.7353V12.309L47.1176 10.809V13.75L45.1176 12.75V9.80899L42.1176 8.30899V17.5L50.1176 21.7353Z" fill="white"/>
<path d="M78.5007 4.30838L76.0293 3L67.8295 7.34106L70.7447 8.79868L78.5007 4.30838Z" fill="white"/>
<path d="M80.5857 5.41223L72.8866 9.86963L76.0227 11.4377L83.9949 7.2171L80.5857 5.41223Z" fill="white"/>
<path d="M84.5293 8.06567L76.5293 12.301V21.7353L84.5293 17.5V8.06567Z" fill="white"/>
<path d="M75.5293 21.7353V12.309L72.5293 10.809V13.75L70.5293 12.75V9.80899L67.5293 8.30899V17.5L75.5293 21.7353Z" fill="white"/>
<path d="M103.913 4.30838L101.441 3L93.2414 7.34106L96.1566 8.79868L103.913 4.30838Z" fill="white"/>
<path d="M105.998 5.41223L98.2985 9.86963L101.435 11.4377L109.407 7.2171L105.998 5.41223Z" fill="white"/>
<path d="M109.941 8.06567L101.941 12.301V21.7353L109.941 17.5V8.06567Z" fill="white"/>
<path d="M100.941 21.7353V12.309L97.9412 10.809V13.75L95.9412 12.75V9.80899L92.9412 8.30899V17.5L100.941 21.7353Z" fill="white"/>
<path d="M129.324 4.30838L126.853 3L118.653 7.34106L121.568 8.79868L129.324 4.30838Z" fill="white"/>
<path d="M131.409 5.41223L123.71 9.86963L126.846 11.4377L134.819 7.2171L131.409 5.41223Z" fill="white"/>
<path d="M135.353 8.06567L127.353 12.301V21.7353L135.353 17.5V8.06567Z" fill="white"/>
<path d="M126.353 21.7353V12.309L123.353 10.809V13.75L121.353 12.75V9.80899L118.353 8.30899V17.5L126.353 21.7353Z" fill="white"/>
<path d="M154.736 4.30838L152.265 3L144.065 7.34106L146.98 8.79868L154.736 4.30838Z" fill="white"/>
<path d="M156.821 5.41223L149.122 9.86963L152.258 11.4377L160.23 7.2171L156.821 5.41223Z" fill="white"/>
<path d="M160.765 8.06567L152.765 12.301V21.7353L160.765 17.5V8.06567Z" fill="white"/>
<path d="M151.765 21.7353V12.309L148.765 10.809V13.75L146.765 12.75V9.80899L143.765 8.30899V17.5L151.765 21.7353Z" fill="white"/>
<path d="M180.148 4.30838L177.676 3L169.477 7.34106L172.392 8.79868L180.148 4.30838Z" fill="white"/>
<path d="M182.233 5.41223L174.534 9.86963L177.67 11.4377L185.642 7.2171L182.233 5.41223Z" fill="white"/>
<path d="M186.176 8.06567L178.176 12.301V21.7353L186.176 17.5V8.06567Z" fill="white"/>
<path d="M177.176 21.7353V12.309L174.176 10.809V13.75L172.176 12.75V9.80899L169.176 8.30899V17.5L177.176 21.7353Z" fill="white"/>
<path d="M205.56 4.30838L203.088 3L194.888 7.34106L197.804 8.79868L205.56 4.30838Z" fill="white"/>
<path d="M207.645 5.41223L199.946 9.86963L203.082 11.4377L211.054 7.2171L207.645 5.41223Z" fill="white"/>
<path d="M211.588 8.06567L203.588 12.301V21.7353L211.588 17.5V8.06567Z" fill="white"/>
<path d="M202.588 21.7353V12.309L199.588 10.809V13.75L197.588 12.75V9.80899L194.588 8.30899V17.5L202.588 21.7353Z" fill="white"/>
<path d="M27.6774 166.308L25.206 165L17.0062 169.341L19.9214 170.799L27.6774 166.308Z" fill="white"/>
<path d="M29.7624 167.412L22.0633 171.87L25.1994 173.438L33.1716 169.217L29.7624 167.412Z" fill="white"/>
<path d="M33.706 170.066L25.706 174.301V183.735L33.706 179.5V170.066Z" fill="white"/>
<path d="M24.706 183.735V174.309L21.706 172.809V175.75L19.706 174.75V171.809L16.706 170.309V179.5L24.706 183.735Z" fill="white"/>
<path d="M53.089 166.308L50.6176 165L42.4178 169.341L45.333 170.799L53.089 166.308Z" fill="white"/>
<path d="M55.174 167.412L47.4749 171.87L50.611 173.438L58.5832 169.217L55.174 167.412Z" fill="white"/>
<path d="M59.1176 170.066L51.1176 174.301V183.735L59.1176 179.5V170.066Z" fill="white"/>
<path d="M50.1176 183.735V174.309L47.1176 172.809V175.75L45.1176 174.75V171.809L42.1176 170.309V179.5L50.1176 183.735Z" fill="white"/>
<path d="M78.5007 166.308L76.0293 165L67.8295 169.341L70.7447 170.799L78.5007 166.308Z" fill="white"/>
<path d="M80.5857 167.412L72.8866 171.87L76.0227 173.438L83.9949 169.217L80.5857 167.412Z" fill="white"/>
<path d="M84.5293 170.066L76.5293 174.301V183.735L84.5293 179.5V170.066Z" fill="white"/>
<path d="M75.5293 183.735V174.309L72.5293 172.809V175.75L70.5293 174.75V171.809L67.5293 170.309V179.5L75.5293 183.735Z" fill="white"/>
<path d="M103.913 166.308L101.441 165L93.2414 169.341L96.1566 170.799L103.913 166.308Z" fill="white"/>
<path d="M105.998 167.412L98.2985 171.87L101.435 173.438L109.407 169.217L105.998 167.412Z" fill="white"/>
<path d="M109.941 170.066L101.941 174.301V183.735L109.941 179.5V170.066Z" fill="white"/>
<path d="M100.941 183.735V174.309L97.9412 172.809V175.75L95.9412 174.75V171.809L92.9412 170.309V179.5L100.941 183.735Z" fill="white"/>
<path d="M129.324 166.308L126.853 165L118.653 169.341L121.568 170.799L129.324 166.308Z" fill="white"/>
<path d="M131.409 167.412L123.71 171.87L126.846 173.438L134.819 169.217L131.409 167.412Z" fill="white"/>
<path d="M135.353 170.066L127.353 174.301V183.735L135.353 179.5V170.066Z" fill="white"/>
<path d="M126.353 183.735V174.309L123.353 172.809V175.75L121.353 174.75V171.809L118.353 170.309V179.5L126.353 183.735Z" fill="white"/>
<path d="M154.736 166.308L152.265 165L144.065 169.341L146.98 170.799L154.736 166.308Z" fill="white"/>
<path d="M156.821 167.412L149.122 171.87L152.258 173.438L160.23 169.217L156.821 167.412Z" fill="white"/>
<path d="M160.765 170.066L152.765 174.301V183.735L160.765 179.5V170.066Z" fill="white"/>
<path d="M151.765 183.735V174.309L148.765 172.809V175.75L146.765 174.75V171.809L143.765 170.309V179.5L151.765 183.735Z" fill="white"/>
<path d="M180.148 166.308L177.676 165L169.477 169.341L172.392 170.799L180.148 166.308Z" fill="white"/>
<path d="M182.233 167.412L174.534 171.87L177.67 173.438L185.642 169.217L182.233 167.412Z" fill="white"/>
<path d="M186.176 170.066L178.176 174.301V183.735L186.176 179.5V170.066Z" fill="white"/>
<path d="M177.176 183.735V174.309L174.176 172.809V175.75L172.176 174.75V171.809L169.176 170.309V179.5L177.176 183.735Z" fill="white"/>
<path d="M205.56 166.308L203.088 165L194.888 169.341L197.804 170.799L205.56 166.308Z" fill="white"/>
<path d="M207.645 167.412L199.946 171.87L203.082 173.438L211.054 169.217L207.645 167.412Z" fill="white"/>
<path d="M211.588 170.066L203.588 174.301V183.735L211.588 179.5V170.066Z" fill="white"/>
<path d="M202.588 183.735V174.309L199.588 172.809V175.75L197.588 174.75V171.809L194.588 170.309V179.5L202.588 183.735Z" fill="white"/>
</svg>
